Coordinates
version=1
nRows=16
nColumns=22
inDegrees=yes

Units are S.I. units (second, meters, Newtons, ...)
If the header above contains a line with 'inDegrees', this indicates whether rotational values are in degrees (yes) or radians (no).

endheader
time	pelvis_tilt	pelvis_list	pelvis_rotation	pelvis_tx	pelvis_ty	pelvis_tz	hip_flexion_r	hip_adduction_r	hip_rotation_r	knee_angle_r	ankle_angle_r	subtalar_angle_r	hip_flexion_l	hip_adduction_l	hip_rotation_l	knee_angle_l	ankle_angle_l	subtalar_angle_l	lumbar_extension	lumbar_bending	lumbar_rotation
      1.20000000	     -0.63000686	      1.53341867	    -28.26109200	     -0.94447515	      0.90143497	     -0.43126077	      0.70188582	     -4.88286904	     -5.81480359	    -13.51340595	     20.28344854	      3.04839804	      3.76356466	      1.70652667	     -9.17550357	    -18.17121919	     17.31979815	     -4.24564537	     -7.11431274	     -1.67329851	      4.87225596
      1.21000000	     -0.61118622	      1.64391954	    -28.39574522	     -0.94364461	      0.90123140	     -0.43275728	      1.52993772	     -5.14494612	     -5.40692308	    -14.88332008	     20.37203155	      2.78486025	      3.77741369	      1.94512940	     -9.26227559	    -18.14133702	     17.30110165	     -4.26873114	     -7.27004244	     -1.77561247	      4.91646013
      1.22000000	     -0.62892346	      1.74138860	    -28.55779642	     -0.94284536	      0.90099927	     -0.43419181	      2.47574958	     -5.36296501	     -4.95986179	    -16.39792029	     20.38783929	      2.37342771	      3.81648105	      2.14870577	     -9.38636217	    -18.10934897	     17.29799901	     -4.33472122	     -7.40214631	     -1.84406934	      4.97730137
      1.23000000	     -0.61263058	      1.83586099	    -28.74673423	     -0.94206516	      0.90081218	     -0.43555541	      3.46544915	     -5.57935520	     -4.46342349	    -18.04038805	     20.37785772	      1.90240711	      3.81410763	      2.36913949	     -9.51734307	    -18.06941192	     17.33041174	     -4.42128022	     -7.58040119	     -1.93285470	      5.04356277
      1.24000000	     -0.54406607	      1.90859887	    -28.98514013	     -0.94127881	      0.90072448	     -0.43679947	      4.47799164	     -5.78790570	     -3.93717966	    -19.81959547	     20.35108610	      1.58829355	      3.71154172	      2.60188233	     -9.66220814	    -17.96643821	     17.30699049	     -4.48881733	     -7.82848730	     -2.03263351	      5.15371734
      1.25000000	     -0.54893473	      1.95585775	    -29.23380209	     -0.94049859	      0.90057436	     -0.43794771	      5.62244881	     -5.91471066	     -3.43726239	    -21.72652515	     20.19585796	      1.04868082	      3.67832494	      2.75969578	     -9.86920310	    -17.89641388	     17.33686527	     -4.62362834	     -8.01059822	     -2.06654269	      5.26666446
      1.26000000	     -0.45605797	      1.98391963	    -29.50776960	     -0.93970362	      0.90058559	     -0.43900975	      6.72026110	     -6.05690111	     -2.91682618	    -23.72596411	     20.02886700	      0.68159226	      3.50598130	      2.96361992	    -10.03402282	    -17.76228593	     17.35790703	     -4.70982152	     -8.31352035	     -2.13867527	      5.37585571
      1.27000000	     -0.40239401	      1.98545670	    -29.78174765	     -0.93892486	      0.90059506	     -0.43998739	      7.89840646	     -6.13592444	     -2.44076594	    -25.81848620	     19.75974421	      0.23217714	      3.37062639	      3.11009512	    -10.23653976	    -17.65665450	     17.38061224	     -4.82399665	     -8.59201179	     -2.16484823	      5.47848781
      1.28000000	     -0.38064907	      1.95033326	    -30.01270464	     -0.93814063	      0.90062089	     -0.44094579	      9.10833817	     -6.15014889	     -2.05009024	    -27.94688646	     19.40702658	     -0.46477765	      3.27360935	      3.19624522	    -10.42350457	    -17.59976457	     17.44706277	     -4.98392906	     -8.86509508	     -2.12979540	      5.52308190
      1.29000000	     -0.31065702	      1.89527937	    -30.24493301	     -0.93733892	      0.90075839	     -0.44182320	     10.28209199	     -6.15518623	     -1.68443665	    -30.09080346	     19.01344718	     -0.95611930	      3.10085273	      3.29021496	    -10.60305993	    -17.50885442	     17.45930664	     -5.06805899	     -9.20172313	     -2.10558273	      5.55255011
      1.30000000	     -0.24445631	      1.82172847	    -30.44954994	     -0.93651454	      0.90093281	     -0.44264967	     11.44825614	     -6.12738824	     -1.38055750	    -32.20784358	     18.59339183	     -1.45654417	      2.92939688	      3.35718930	    -10.78304608	    -17.43389767	     17.45227389	     -5.12995611	     -9.54710039	     -2.05889622	      5.54131355
      1.31000000	     -0.19626868	      1.72763912	    -30.61932144	     -0.93564274	      0.90112594	     -0.44340628	     12.59187892	     -6.05107503	     -1.12714299	    -34.24269136	     18.15996305	     -2.01950207	      2.76449965	      3.39264341	    -10.91467970	    -17.36599043	     17.45595162	     -5.16945482	     -9.88008764	     -1.98201578	      5.49529200
      1.32000000	     -0.15484102	      1.61797434	    -30.76077604	     -0.93471525	      0.90134676	     -0.44407511	     13.69164183	     -5.93504955	     -0.91408434	    -36.15557778	     17.75151446	     -2.54684591	      2.59412087	      3.40405760	    -11.02009193	    -17.30240923	     17.44288360	     -5.18305107	    -10.20852491	     -1.88630856	      5.40267154
      1.33000000	     -0.14987118	      1.49503771	    -30.86180666	     -0.93370785	      0.90154031	     -0.44467737	     14.76208047	     -5.76864540	     -0.75763295	    -37.91287402	     17.39633940	     -3.14693901	      2.46265224	      3.37598157	    -11.09855932	    -17.27479084	     17.44975550	     -5.17848195	    -10.49608917	     -1.75145712	      5.28353741
      1.34000000	     -0.16291422	      1.36030404	    -30.94605252	     -0.93262404	      0.90174755	     -0.44515874	     15.77660633	     -5.55324266	     -0.62216601	    -39.47455198	     17.10915710	     -3.60825273	      2.31983678	      3.32839860	    -11.11513962	    -17.22282733	     17.43736705	     -5.15508138	    -10.75889353	     -1.59864803	      5.17465018
      1.35000000	     -0.20581513	      1.20826295	    -30.97693788	     -0.93144328	      0.90193683	     -0.44554382	     16.72603159	     -5.29060045	     -0.56197891	    -40.81335774	     16.91422666	     -4.07119305	      2.20827187	      3.23150557	    -11.13736416	    -17.21317074	     17.45997121	     -5.11344577	    -10.98590352	     -1.41173648	      5.00227068
